inDegrees=no
num_controls=7
num_derivatives=13
num_iterations=115
num_multipliers=7
num_parameters=0
num_slacks=7
num_states=26
objective=5.611992
objective_accelerations=0.605158
objective_balance=0.118923
objective_effort=0.423067
objective_height=4.403341
objective_ligament=0.061503
solver_duration=1328.407837
status=Solve_Succeeded
success=true
DataType=double
version=3
OpenSimVersion=4.4-2022-07-23-0e9fedc
endheader
time	/jointset/ground_pelvis/pelvis_tilt/value	/jointset/ground_pelvis/pelvis_tx/value	/jointset/ground_pelvis/pelvis_ty/value	/jointset/hip_l/hip_flexion_l/value	/jointset/hip_l/hip_adduction_l/value	/jointset/hip_l/hip_rotation_l/value	/jointset/back/lumbar_extension/value	/jointset/patellofemoral_l/patellar_flexion_l/value	/jointset/knee_l/knee_flexion_l/value	/jointset/knee_l/knee_adduction_l/value	/jointset/knee_l/knee_rotation_l/value	/jointset/ankle_l/ankle_angle_l/value	/jointset/subtalar_l/subtalar_angle_l/value	/jointset/ground_pelvis/pelvis_tilt/speed	/jointset/ground_pelvis/pelvis_tx/speed	/jointset/ground_pelvis/pelvis_ty/speed	/jointset/hip_l/hip_flexion_l/speed	/jointset/hip_l/hip_adduction_l/speed	/jointset/hip_l/hip_rotation_l/speed	/jointset/back/lumbar_extension/speed	/jointset/patellofemoral_l/patellar_flexion_l/speed	/jointset/knee_l/knee_flexion_l/speed	/jointset/knee_l/knee_adduction_l/speed	/jointset/knee_l/knee_rotation_l/speed	/jointset/ankle_l/ankle_angle_l/speed	/jointset/subtalar_l/subtalar_angle_l/speed	/forceset/tau_hip_flexion_l	/forceset/tau_hip_adduction_l	/forceset/tau_hip_rotation_l	/forceset/tau_knee_flexion_l	/forceset/tau_ankle_angle_l	/forceset/tau_subtalar_angle_l	/forceset/tau_lumbar_extension	lambda_cid13_p0	lambda_cid13_p1	lambda_cid13_p2	lambda_cid13_p3	lambda_cid13_p4	lambda_cid13_p5	lambda_cid14_p0	/jointset/ground_pelvis/pelvis_tilt/accel	/jointset/ground_pelvis/pelvis_tx/accel	/jointset/ground_pelvis/pelvis_ty/accel	/jointset/hip_l/hip_flexion_l/accel	/jointset/hip_l/hip_adduction_l/accel	/jointset/hip_l/hip_rotation_l/accel	/jointset/back/lumbar_extension/accel	/jointset/patellofemoral_l/patellar_flexion_l/accel	/jointset/knee_l/knee_flexion_l/accel	/jointset/knee_l/knee_adduction_l/accel	/jointset/knee_l/knee_rotation_l/accel	/jointset/ankle_l/ankle_angle_l/accel	/jointset/subtalar_l/subtalar_angle_l/accel	gamma_cid13_p0	gamma_cid13_p1	gamma_cid13_p2	gamma_cid13_p3	gamma_cid13_p4	gamma_cid13_p5	gamma_cid14_p0
1.5	-0.4386644405081438	-0.05455151339054681	0.7688862921451465	1.234647729827301	-0.308643495845426	-0.04091229187044191	-0.342189545947822	0.698280615608184	0.6982806156081841	-0.1727480639534517	0.174252495038407	0.07115471283288655	-0.04117850875536699	0.7078643313733293	0.221865177644708	0.4676045586223942	-2.255393120391035	0.02515850512696979	-0.6221312976805664	0.5681547189885512	-1.772324230212342	-1.77232423021234	0.005540677856577778	-0.0002748348611594995	-0.325355371721721	-0.01812937740590685	-0.2478108957655272	0.03375833816793231	-0.01999599275519592	-0.1905945591737655	0.1006127079292075	0.03781357654869186	0.2235670296998037	-6.44258278862769	-18.20016861839738	5.818287506813218	-1.998090098757804	-610.1827898593773	-51.27573663495108	-27.76137183055094	0.639038408312969	0.6047281299741327	-0.2969043650306424	-1.500040161805687	0.5612103378914473	-0.2966375479148333	1.687010402672747	-1.060850275965612	-1.060850275965614	-0.03821272580325311	-0.008898964431442596	-0.1643124952344032	0.5487678727323801	3.169855595923585e-07	8.460147222010709e-07	-1.551979911358529e-06	-1.024916016332484e-07	3.869064370718414e-07	1.572913007513275e-07	3.293149950299854e-07
1.51	-0.431554218402743	-0.05230278927765469	0.7735465989565605	1.212020868503689	-0.3083650637696831	-0.04714725518560658	-0.3364249757571569	0.6805064435131798	0.6805064435131806	-0.1726973781793553	0.1742501008807788	0.06789311395021133	-0.04133372409698961	0.7140792031284022	0.2278551293716727	0.4643631650865002	-2.269662795482651	0.03053091678659853	-0.6247429615799901	0.5846916469506059	-1.782259308951799	-1.782259308951794	0.004559866690901831	-0.0002321958563895261	-0.326902673154832	-0.01290929716936566	-0.2399407717495985	0.03285687357826431	-0.0198840762560646	-0.1895269838512195	0.1019646553219319	0.03711588154943492	0.2174740694186484	-5.794812601019448	-18.11723469780734	5.926891002376259	-2.129289447721185	-605.9296706044403	-51.59156449043259	-28.78971527829056	0.5976091204679315	0.5924526104395939	-0.3517364177097771	-1.342941584356349	0.5257316760921843	-0.2253910122545963	1.626883163896096	-0.9222632140990892	-0.9222632140987187	-0.1333764725711735	0.006876346574733412	-0.1406662572417431	0.5092419308252305	2.589590536689533e-07	1.026789276642965e-06	-1.273214089251466e-06	-3.071986711214861e-08	3.500618090569064e-07	2.153135964520597e-07	3.050720684082634e-07
1.52	-0.4243848680675191	-0.04999490086421653	0.7781716959186477	1.189260808348858	-0.3080328125581259	-0.05340472718002406	-0.3304970664526864	0.6626404353225489	0.6626404353225489	-0.1726575727490418	0.1742473393159258	0.06461789659522664	-0.04143661586990476	0.7196899773380143	0.233698037753916	0.4605625887569669	-2.282032886634938	0.03592233228992979	-0.6266330335313525	0.6008225417496305	-1.79069144933779	-1.790691449337783	0.003364609100371179	-0.0003483163058740569	-0.3280790661836346	-0.007664663664414692	-0.2320706477336679	0.0319554089885984	-0.01977215975695157	-0.1884594085286701	0.1033166027146576	0.03641818655018104	0.2113811091374941	-5.153078475474545	-18.03688301383828	6.040063721463121	-2.264206138845115	-601.7820499072067	-51.98037394700854	-29.80099053419092	0.5182188992208507	0.5753194610298668	-0.4087409237585022	-1.12012337393975	0.5650111066319531	-0.1523191583026064	1.605803770066681	-0.7602626052724155	-0.7602626052725282	-0.08110201077404504	-0.04065085528187614	-0.09013081437272821	0.5536785264143339	1.965623435690137e-07	1.207160745585914e-06	-9.759159758688217e-07	3.769649779913942e-08	3.156780681336002e-07	2.649275864785224e-07	2.769784849294534e-07
1.53	-0.4171625100992996	-0.04762943432175499	0.7827560511943505	1.166386736203266	-0.3076461724818235	-0.05967916226675003	-0.324410225811356	0.6446978344281231	0.6446978344281229	-0.1726291118490966	0.1742436165109466	0.06133282485689893	-0.04148651598312701	0.7246721514459197	0.2393583978575275	0.4562206877746974	-2.292445704902636	0.04143084484087041	-0.6281867855429495	0.6164424488568909	-1.797572689018581	-1.797572689018574	0.002368109187028968	-0.000402303154470568	-0.328875364182992	-0.002287973507351423	-0.2239439949045852	0.03083849357356856	-0.01971422873827374	-0.1875739574031303	0.1047944897941673	0.03560848259391729	0.2050202084868098	-4.478335821027104	-17.9140353204309	6.146883405752012	-2.328116900099698	-597.6474928344552	-52.33630557980462	-30.79081032647675	0.4718137664096786	0.5558908061239238	-0.4600280965304337	-0.9514642740677348	0.5474349314002783	-0.1465882729349498	1.524613532124358	-0.6136940828184674	-0.6136940828183871	-0.1026182822445444	0.01147193772753697	-0.06537098227673099	0.5335954415616173	1.295222915315062e-07	1.387103936186234e-06	-6.589273030058708e-07	1.025477825000025e-07	2.839090197451497e-07	3.056077517260739e-07	2.447935785399873e-07
1.54	-0.4098936109700341	-0.0452084648740379	0.787294364778017	1.143418615230821	-0.3072037145595967	-0.06596707188366131	-0.3181702802287392	0.6266940932502221	0.626694093250222	-0.1726093548084104	0.1742392027449569	0.0580415918006657	-0.04148186295853677	0.7289982095471974	0.2447986188050236	0.4513542503496575	-2.300842652005651	0.04708590147481771	-0.6293279395684164	0.6314435300068966	-1.802919506032814	-1.802919506032808	0.001623837248478602	-0.0004865085080227944	-0.3293113297647293	0.003245963898083624	-0.2158173420755021	0.02972157815853841	-0.019656297719593	-0.186688506277591	0.106272376873677	0.03479877863765308	0.1986593078361255	-3.810502561891874	-17.79262616092397	6.256957743538505	-2.384837118634267	-593.6269351630204	-52.75191792463621	-31.75482804299427	0.386995697895333	0.5312916298067971	-0.5136482123125672	-0.7169491410032729	0.5943199232332896	-0.06979956107676649	1.48203857861571	-0.4533780719611413	-0.453378071961141	-0.03065641581567598	-0.0466945562728879	-0.01806433084874639	0.5851279760886896	8.799830524868636e-08	1.517500693027595e-06	-4.784096031699139e-07	1.433464356791949e-07	2.688512966719837e-07	3.402662271253649e-07	2.278584869075219e-07
